<svg width="494" height="481" viewBox="0 0 494 481" fill="none" xmlns="http://www.w3.org/2000/svg">
<g clip-path="url(#clip0_3_16)">
<path d="M315.007 107.789H288.751V331.635C288.751 335.147 288.059 338.625 286.715 341.87C285.371 345.114 283.401 348.063 280.918 350.546C278.434 353.03 275.486 354.999 272.241 356.343C268.996 357.687 265.519 358.379 262.007 358.379H61.2695V358.635C61.2695 362.147 61.9613 365.625 63.3053 368.87C64.6493 372.114 66.6192 375.063 69.1027 377.546C71.5861 380.03 74.5343 381.999 77.7791 383.343C81.0238 384.687 84.5015 385.379 88.0136 385.379H315.007C318.519 385.379 321.996 384.687 325.241 383.343C328.486 381.999 331.434 380.03 333.918 377.546C336.401 375.063 338.371 372.114 339.715 368.87C341.059 365.625 341.751 362.147 341.751 358.635V134.533C341.751 127.44 338.933 120.637 333.918 115.622C328.902 110.606 322.1 107.789 315.007 107.789Z" fill="#F2F2F2"/>
<path d="M439.472 463.515C439.937 463.537 440.397 463.415 440.79 463.166C441.183 462.917 441.49 462.553 441.67 462.124C441.849 461.694 441.892 461.22 441.793 460.766C441.694 460.311 441.458 459.898 441.116 459.582L440.961 458.964C440.981 458.914 441.002 458.865 441.023 458.815C441.491 457.709 442.276 456.766 443.278 456.105C444.281 455.443 445.456 455.093 446.657 455.097C447.858 455.102 449.031 455.461 450.029 456.13C451.026 456.799 451.804 457.748 452.264 458.857C454.103 463.285 456.444 467.721 457.02 472.403C457.274 474.473 457.167 476.571 456.703 478.604C461.022 469.184 463.264 458.945 463.279 448.583C463.28 445.982 463.135 443.384 462.846 440.8C462.607 438.681 462.275 436.578 461.851 434.489C459.537 423.158 454.567 412.538 447.351 403.5C443.858 401.594 441.034 398.664 439.258 395.103C438.615 393.824 438.16 392.457 437.908 391.047C438.302 391.099 439.394 385.099 439.097 384.73C439.646 383.897 440.628 383.483 441.228 382.67C444.21 378.627 448.319 379.333 450.464 384.827C455.046 387.14 455.091 390.975 452.279 394.664C450.49 397.011 450.245 400.186 448.675 402.699C448.837 402.906 449.005 403.106 449.166 403.313C452.118 407.108 454.69 411.184 456.847 415.481C456.323 410.667 456.948 405.797 458.673 401.272C460.422 397.054 463.698 393.502 466.584 389.857C467.347 388.877 468.383 388.146 469.562 387.756C470.741 387.365 472.009 387.333 473.206 387.663C474.403 387.993 475.475 388.67 476.287 389.61C477.099 390.549 477.614 391.708 477.768 392.94C477.774 392.994 477.78 393.047 477.785 393.101C477.357 393.343 476.937 393.6 476.527 393.871C476.011 394.216 475.611 394.708 475.38 395.283C475.149 395.859 475.097 396.491 475.231 397.096C475.365 397.702 475.679 398.253 476.132 398.677C476.585 399.101 477.155 399.378 477.768 399.473L477.83 399.482C477.678 401.027 477.408 402.558 477.023 404.062C480.725 418.378 472.733 423.592 461.322 423.826C461.07 423.955 460.824 424.084 460.572 424.207C462.739 430.348 464.098 436.744 464.616 443.235C464.908 447.064 464.891 450.911 464.564 454.738L464.583 454.602C465.41 450.347 467.68 446.508 471.01 443.732C475.955 439.67 482.943 438.173 488.278 434.908C488.845 434.544 489.504 434.349 490.178 434.348C490.852 434.346 491.512 434.537 492.081 434.899C492.65 435.26 493.104 435.776 493.389 436.387C493.673 436.998 493.778 437.677 493.689 438.345L493.667 438.488C492.872 438.812 492.098 439.185 491.349 439.605C490.92 439.847 490.501 440.103 490.09 440.375C489.574 440.719 489.175 441.212 488.944 441.787C488.713 442.363 488.661 442.995 488.795 443.6C488.929 444.206 489.243 444.757 489.696 445.181C490.148 445.605 490.718 445.882 491.331 445.977L491.394 445.986C491.439 445.993 491.478 445.999 491.523 446.006C490.164 449.251 488.257 452.237 485.885 454.835C483.57 467.332 473.629 468.518 462.994 464.878H462.988C461.821 469.949 460.131 474.884 457.943 479.605H439.923C439.859 479.404 439.801 479.198 439.742 478.997C441.41 479.102 443.085 479.003 444.729 478.7C443.392 477.06 442.055 475.406 440.718 473.766C440.688 473.735 440.66 473.703 440.634 473.669C439.956 472.829 439.271 471.996 438.593 471.157L438.592 471.156C438.556 468.582 438.852 466.014 439.472 463.515Z" fill="#F2F2F2"/>
<path d="M240.994 77.3395C241.652 78.3362 242.518 79.1782 243.534 79.8071C244.549 80.4361 245.689 80.837 246.874 80.9821C248.06 81.1272 249.263 81.013 250.4 80.6475C251.537 80.282 252.581 79.6739 253.46 78.8652L290.925 95.768L298.148 86.5547L253.503 66.8044C252.032 65.4262 250.106 64.6356 248.091 64.5824C246.076 64.5292 244.111 65.2171 242.569 66.5157C241.027 67.8142 240.015 69.6333 239.725 71.6282C239.435 73.6231 239.886 75.6552 240.994 77.3395Z" fill="#A0616A"/>
<path d="M401.778 87.8792L405.493 108.936C405.667 109.918 405.633 110.926 405.394 111.894C405.155 112.862 404.716 113.77 404.105 114.559C403.494 115.348 402.725 116 401.848 116.474C400.97 116.948 400.003 117.233 399.008 117.312L335.87 122.277L261.653 89.0612L270.517 72.234L334.944 92.6362L401.778 87.8792Z" fill="#2A7461"/>
<path d="M254.007 72.7888H27.0136C12.2433 72.7888 0.269531 84.7626 0.269531 99.5329V323.635C0.269531 338.406 12.2433 350.379 27.0136 350.379H254.007C268.777 350.379 280.751 338.406 280.751 323.635V99.5329C280.751 84.7626 268.777 72.7888 254.007 72.7888Z" fill="#F2F2F2"/>
<path d="M27.0137 78.2887C24.2239 78.2887 21.4613 78.8382 18.8839 79.9058C16.3064 80.9734 13.9645 82.5382 11.9918 84.5109C10.0191 86.4836 8.45424 88.8256 7.38663 91.403C6.31901 93.9805 5.76953 96.743 5.76953 99.5328V323.635C5.76953 329.27 8.00774 334.673 11.9918 338.657C15.9758 342.641 21.3794 344.879 27.0137 344.879H171.886C185.46 344.879 198.901 342.206 211.442 337.011C223.983 331.817 235.377 324.203 244.976 314.605C254.574 305.007 262.188 293.612 267.382 281.071C272.577 268.53 275.25 255.089 275.25 241.515V99.5328C275.25 96.743 274.701 93.9805 273.633 91.403C272.566 88.8256 271.001 86.4836 269.028 84.5109C267.056 82.5382 264.714 80.9734 262.136 79.9058C259.559 78.8382 256.796 78.2887 254.006 78.2887H27.0137Z" fill="white"/>
<path d="M203.965 146.3H76.5589C75.3898 146.3 74.2686 145.836 73.442 145.009C72.6153 144.182 72.1509 143.061 72.1509 141.892C72.1509 140.723 72.6153 139.602 73.442 138.775C74.2686 137.948 75.3898 137.484 76.5589 137.484H203.965C205.134 137.484 206.256 137.948 207.082 138.775C207.909 139.602 208.373 140.723 208.373 141.892C208.373 143.061 207.909 144.182 207.082 145.009C206.256 145.836 205.134 146.3 203.965 146.3Z" fill="#F2F2F2"/>
<path d="M203.965 240.3H76.5589C75.3898 240.3 74.2686 239.836 73.442 239.009C72.6153 238.182 72.1509 237.061 72.1509 235.892C72.1509 234.723 72.6153 233.602 73.442 232.775C74.2686 231.948 75.3898 231.484 76.5589 231.484H203.965C205.134 231.484 206.256 231.948 207.082 232.775C207.909 233.602 208.373 234.723 208.373 235.892C208.373 237.061 207.909 238.182 207.082 239.009C206.256 239.836 205.134 240.3 203.965 240.3Z" fill="#F2F2F2"/>
<path d="M255.702 193.331H24.8218C23.6528 193.331 22.5316 192.866 21.7049 192.04C20.8782 191.213 20.4138 190.092 20.4138 188.923C20.4138 187.754 20.8782 186.632 21.7049 185.806C22.5316 184.979 23.6528 184.515 24.8218 184.515H255.702C256.871 184.515 257.993 184.979 258.819 185.806C259.646 186.632 260.11 187.754 260.11 188.923C260.11 190.092 259.646 191.213 258.819 192.04C257.993 192.866 256.871 193.331 255.702 193.331Z" fill="#F2F2F2"/>
<path d="M393.801 180.687L370.801 229.687L459.278 220.726L440.809 173.687L393.801 180.687Z" fill="#A0616A"/>
<path d="M414.371 462.32L405.982 462.249L402.269 429.138L414.649 429.243L414.371 462.32Z" fill="#A0616A"/>
<path d="M387.5 475.659C387.493 476.654 387.88 477.61 388.577 478.32C389.274 479.029 390.224 479.433 391.219 479.442L407.897 479.582L410.817 473.663L411.89 479.612L418.183 479.669L416.594 458.452L414.404 458.306L405.474 457.691L402.592 457.498L402.542 463.501L389.144 472.588C388.642 472.929 388.23 473.386 387.944 473.921C387.658 474.456 387.505 475.052 387.5 475.659Z" fill="#2F2E41"/>
<path d="M321.536 462.358L313.538 459.825L319.717 427.085L331.521 430.822L321.536 462.358Z" fill="#A0616A"/>
<path d="M291.932 467.214C291.633 468.162 291.722 469.19 292.18 470.073C292.638 470.956 293.427 471.621 294.375 471.922L310.276 476.956L314.806 472.156L314.084 478.158L320.082 480.061L324.797 459.314L322.747 458.532L314.391 455.319L311.694 454.288L309.882 460.011L294.405 464.761C293.825 464.939 293.297 465.256 292.867 465.683C292.436 466.11 292.115 466.635 291.932 467.214Z" fill="#2F2E41"/>
<path d="M455.248 206.946L374.801 221.687C374.801 221.687 361.897 231.339 365.349 234.796C368.801 238.252 369.336 237.717 367.068 239.985C364.801 242.253 359.897 245.284 359.849 247.268C359.801 249.252 323.801 338.252 323.801 338.252C323.801 338.252 327.801 336.252 324.801 339.252C321.801 342.252 321.801 344.731 321.801 344.731L307.801 439.252L330.537 440.591L352.801 354.418L402.46 273.914C402.46 273.914 407.387 345.703 407.594 350.478C407.801 355.252 410.801 349.252 407.801 355.252C404.801 361.252 402.801 357.252 404.801 361.252C406.801 365.252 397.596 446.687 397.596 446.687H418.349L462.859 277.896C462.859 277.896 478.695 229.64 455.248 206.946Z" fill="#2F2E41"/>
<path d="M431.549 71.9345L399.324 68.5862L390.975 79.4255L381.249 84.6057C377.133 86.7979 373.736 90.1293 371.463 94.2014C369.191 98.2736 368.139 102.914 368.434 107.568L379.801 173.687C379.801 173.687 370.2 195.306 376.801 200.687C383.402 206.068 371.697 219.394 385.801 212.687C399.904 205.98 460.801 213.687 460.801 213.687L447.801 176.687L457.512 140.33L458.581 109.844C458.781 104.148 457.09 98.5449 453.773 93.9095C450.456 89.274 445.698 85.8663 440.242 84.2174L438.884 83.8071L431.549 71.9345Z" fill="#2A7461"/>
<path d="M475.914 47.2302C476.125 56.3132 472.73 65.1082 467.854 72.8332C466.405 68.3234 463.8 64.2189 461.084 60.3063C462.453 68.7705 460.994 77.4501 456.934 85.0018C456.79 85.1042 456.642 85.1993 456.489 85.2867C452.515 87.6777 447.475 88.6462 443.175 86.9193C452.06 77.3426 453.19 61.4754 445.742 50.7336C443.633 47.6856 440.906 44.9899 439.599 41.5212C437.537 35.9866 439.52 29.893 440.77 24.1227C441.94 18.7523 442.144 12.3614 438.541 8.42559C438.926 7.87557 439.45 7.43774 440.06 7.15699C440.67 6.87624 441.343 6.76265 442.011 6.82786C444.233 7.14165 445.85 9.07251 446.88 11.0612C447.909 13.0498 448.589 15.2539 450.024 16.9715C452.682 20.1865 457.208 20.9466 461.022 22.641C470.26 26.7556 475.692 37.1233 475.914 47.2302Z" fill="#2F2E41"/>
<path d="M237.92 479.658C237.92 479.815 237.95 479.97 238.01 480.114C238.07 480.259 238.157 480.39 238.268 480.501C238.379 480.611 238.51 480.699 238.654 480.759C238.799 480.818 238.954 480.849 239.11 480.848H492.4C492.716 480.848 493.019 480.723 493.242 480.5C493.465 480.277 493.59 479.974 493.59 479.658C493.59 479.343 493.465 479.04 493.242 478.817C493.019 478.594 492.716 478.468 492.4 478.468H239.11C238.954 478.468 238.799 478.498 238.654 478.558C238.51 478.617 238.379 478.705 238.268 478.816C238.157 478.926 238.07 479.058 238.01 479.202C237.95 479.347 237.92 479.502 237.92 479.658Z" fill="#CCCCCC"/>
<path d="M477.908 257.748C482.879 257.748 486.908 253.718 486.908 248.748C486.908 243.777 482.879 239.748 477.908 239.748C472.937 239.748 468.908 243.777 468.908 248.748C468.908 253.718 472.937 257.748 477.908 257.748Z" fill="#06D6A0"/>
<path d="M398.156 42.0369C398.684 40.1893 395.045 51.4832 396.801 51.6871C404.797 52.6045 415.775 57.3803 421.344 59.6083C421.595 59.5791 421.846 59.55 422.089 59.5136C422.687 59.4481 423.27 59.3534 423.845 59.2442C436.814 56.7905 441.801 36.8691 441.801 36.6871C441.801 35.7915 439.651 11.1941 436.265 10.8301C435.376 10.7336 434.482 10.685 433.588 10.6845H425.185C423.447 10.3098 421.684 10.0544 419.911 9.91997H419.896C402.981 8.6312 389.643 18.9412 390.89 31.4866C390.897 31.5011 390.912 31.5157 390.919 31.5303C391.281 32.0691 391.598 32.5788 391.878 33.0666C392.151 33.5253 392.38 33.9621 392.579 34.3772C394.121 37.5809 390.158 41.6121 392.786 42.3646C396.281 43.3653 383.593 76.2581 397.428 76.2581C390.698 78.1713 396.699 47.1336 398.156 42.0369Z" fill="#2F2E41"/>
<path d="M413.256 61.337C424.243 61.337 433.149 52.4303 433.149 41.4434C433.149 30.4565 424.243 21.5499 413.256 21.5499C402.269 21.5499 393.362 30.4565 393.362 41.4434C393.362 52.4303 402.269 61.337 413.256 61.337Z" fill="#A0616A"/>
<path d="M390.89 32.5714C391.222 32.7462 391.546 32.9063 391.878 33.0665C392.225 33.234 392.572 33.4015 392.919 33.5544C399.58 36.576 405.002 36.9109 408.292 32.5714C408.38 30.288 408.893 28.0411 409.804 25.9456C409.643 28.2873 410.261 30.6167 411.56 32.5714H418.185C425.008 37.1002 428.512 37.5735 423.776 52.4415C422.456 56.5845 417.205 80.6922 419.271 84.2673C419.868 84.2017 426.225 57.7963 426.801 57.6871C439.769 55.2334 448.009 33.8674 446.955 32.6588C446.96 29.2217 446.169 25.83 444.646 22.7492C442.718 18.846 439.712 15.5765 435.985 13.3275C433.763 12.2502 431.447 11.38 429.065 10.7281C429.006 10.7135 428.955 10.6989 428.896 10.6844C428.166 10.4878 427.42 10.3058 426.675 10.1529C425.136 9.82787 423.58 9.59206 422.013 9.44662C421.902 9.43933 421.792 9.43204 421.689 9.43204C421.063 9.4335 420.449 9.60192 419.911 9.91991C419.903 9.91991 419.903 9.92715 419.896 9.92715C419.511 10.1521 419.175 10.4516 418.907 10.8082C418.436 11.4081 418.182 12.1496 418.185 12.9124H410.808C410.535 12.9124 410.262 12.9197 409.989 12.9342C405.065 13.1025 400.382 15.1019 396.855 18.5414C393.328 21.9808 391.211 26.6125 390.919 31.5302C390.897 31.8797 390.89 32.2219 390.89 32.5714Z" fill="#2F2E41"/>
<path d="M434.386 26.212C441.625 26.212 447.492 20.3442 447.492 13.106C447.492 5.86775 441.625 0 434.386 0C427.148 0 421.28 5.86775 421.28 13.106C421.28 20.3442 427.148 26.212 434.386 26.212Z" fill="#2F2E41"/>
<path d="M478.009 252.459C478.649 251.45 479.061 250.315 479.219 249.131C479.377 247.947 479.275 246.743 478.922 245.602C478.568 244.461 477.971 243.411 477.172 242.524C476.373 241.636 475.39 240.933 474.292 240.463L474.357 199.361L462.993 196.548L463.273 245.366C462.619 247.272 462.687 249.353 463.464 251.213C464.241 253.073 465.674 254.583 467.49 255.458C469.307 256.332 471.381 256.51 473.319 255.957C475.258 255.404 476.927 254.16 478.009 252.459Z" fill="#A0616A"/>
<path d="M421.733 101.477L439.417 89.4587C440.242 88.898 441.175 88.5161 442.157 88.3373C443.138 88.1586 444.146 88.187 445.116 88.4208C446.085 88.6546 446.996 89.0886 447.788 89.6949C448.58 90.3013 449.236 91.0665 449.715 91.9416L480.119 147.5L480.235 228.811L461.253 227.621L453.461 160.491L421.733 101.477Z" fill="#2A7461"/>
<path d="M285.915 285.878H96.915C92.8042 285.878 88.8617 287.511 85.9549 290.417C83.0481 293.324 81.415 297.267 81.415 301.378C81.415 305.488 83.0481 309.431 85.9549 312.338C88.8617 315.245 92.8042 316.878 96.915 316.878H285.915C290.026 316.878 293.968 315.245 296.875 312.338C299.782 309.431 301.415 305.488 301.415 301.378C301.415 297.267 299.782 293.324 296.875 290.417C293.968 287.511 290.026 285.878 285.915 285.878Z" fill="white"/>
<path d="M285.915 317.878H96.915C92.539 317.878 88.3421 316.139 85.2478 313.045C82.1534 309.95 80.415 305.754 80.415 301.378C80.415 297.001 82.1534 292.805 85.2478 289.71C88.3421 286.616 92.539 284.878 96.915 284.878H285.915C290.291 284.878 294.488 286.616 297.582 289.71C300.677 292.805 302.415 297.001 302.415 301.378C302.415 305.754 300.677 309.95 297.582 313.045C294.488 316.139 290.291 317.878 285.915 317.878ZM96.915 286.878C93.0694 286.878 89.3813 288.405 86.662 291.125C83.9427 293.844 82.415 297.532 82.415 301.378C82.415 305.223 83.9427 308.911 86.662 311.631C89.3813 314.35 93.0694 315.878 96.915 315.878H285.915C289.761 315.878 293.449 314.35 296.168 311.631C298.887 308.911 300.415 305.223 300.415 301.378C300.415 297.532 298.887 293.844 296.168 291.125C293.449 288.405 289.761 286.878 285.915 286.878H96.915Z" fill="#06D6A0"/>
<path d="M297.06 353.52H213.653C212.484 353.52 211.363 353.056 210.536 352.229C209.71 351.403 209.245 350.281 209.245 349.112C209.245 347.943 209.71 346.822 210.536 345.995C211.363 345.169 212.484 344.704 213.653 344.704H297.06C298.229 344.704 299.35 345.169 300.177 345.995C301.003 346.822 301.468 347.943 301.468 349.112C301.468 350.281 301.003 351.403 300.177 352.229C299.35 353.056 298.229 353.52 297.06 353.52Z" fill="#06D6A0"/>
</g>
<defs>
<clipPath id="clip0_3_16">
<rect width="493.461" height="480.848" fill="white" transform="translate(0.269531)"/>
</clipPath>
</defs>
</svg>
