<svg width="278" height="193" viewBox="0 0 278 193" fill="none" xmlns="http://www.w3.org/2000/svg">
<path d="M101.545 170H77.8864V100.182H102.023C108.955 100.182 114.909 101.58 119.886 104.375C124.886 107.148 128.727 111.136 131.409 116.341C134.091 121.545 135.432 127.773 135.432 135.023C135.432 142.295 134.08 148.545 131.375 153.773C128.693 159 124.818 163.011 119.75 165.807C114.705 168.602 108.636 170 101.545 170ZM90.5341 159.057H100.932C105.795 159.057 109.852 158.17 113.102 156.398C116.352 154.602 118.795 151.932 120.432 148.386C122.068 144.818 122.886 140.364 122.886 135.023C122.886 129.682 122.068 125.25 120.432 121.727C118.795 118.182 116.375 115.534 113.17 113.784C109.989 112.011 106.034 111.125 101.307 111.125H90.5341V159.057ZM167.824 171.023C162.711 171.023 158.279 169.898 154.529 167.648C150.779 165.398 147.87 162.25 145.802 158.205C143.756 154.159 142.733 149.432 142.733 144.023C142.733 138.614 143.756 133.875 145.802 129.807C147.87 125.739 150.779 122.58 154.529 120.33C158.279 118.08 162.711 116.955 167.824 116.955C172.938 116.955 177.37 118.08 181.12 120.33C184.87 122.58 187.768 125.739 189.813 129.807C191.881 133.875 192.915 138.614 192.915 144.023C192.915 149.432 191.881 154.159 189.813 158.205C187.768 162.25 184.87 165.398 181.12 167.648C177.37 169.898 172.938 171.023 167.824 171.023ZM167.893 161.136C170.665 161.136 172.983 160.375 174.847 158.852C176.711 157.307 178.097 155.239 179.006 152.648C179.938 150.057 180.404 147.17 180.404 143.989C180.404 140.784 179.938 137.886 179.006 135.295C178.097 132.682 176.711 130.602 174.847 129.057C172.983 127.511 170.665 126.739 167.893 126.739C165.052 126.739 162.688 127.511 160.802 129.057C158.938 130.602 157.54 132.682 156.608 135.295C155.699 137.886 155.245 140.784 155.245 143.989C155.245 147.17 155.699 150.057 156.608 152.648C157.54 155.239 158.938 157.307 160.802 158.852C162.688 160.375 165.052 161.136 167.893 161.136ZM227.617 117.636V127.182H197.515V117.636H227.617ZM204.947 105.091H217.288V154.25C217.288 155.909 217.538 157.182 218.038 158.068C218.561 158.932 219.242 159.523 220.083 159.841C220.924 160.159 221.856 160.318 222.879 160.318C223.651 160.318 224.356 160.261 224.992 160.148C225.651 160.034 226.151 159.932 226.492 159.841L228.572 169.489C227.913 169.716 226.97 169.966 225.742 170.239C224.538 170.511 223.061 170.67 221.311 170.716C218.22 170.807 215.436 170.341 212.958 169.318C210.481 168.273 208.515 166.659 207.061 164.477C205.629 162.295 204.924 159.568 204.947 156.295V105.091Z" fill="#06D6A0"/>
<circle cx="34" cy="135" r="30" fill="#06D6A0"/>
<path d="M46.6364 40.6364C46.2273 37.1818 44.5682 34.5 41.6591 32.5909C38.75 30.6818 35.1818 29.7273 30.9545 29.7273C27.8636 29.7273 25.1591 30.2273 22.8409 31.2273C20.5455 32.2273 18.75 33.6023 17.4545 35.3523C16.1818 37.1023 15.5455 39.0909 15.5455 41.3182C15.5455 43.1818 15.9886 44.7841 16.875 46.125C17.7841 47.4432 18.9432 48.5455 20.3523 49.4318C21.7614 50.2955 23.2386 51.0114 24.7841 51.5795C26.3295 52.125 27.75 52.5682 29.0455 52.9091L36.1364 54.8182C37.9545 55.2955 39.9773 55.9545 42.2045 56.7955C44.4545 57.6364 46.6023 58.7841 48.6477 60.2386C50.7159 61.6705 52.4205 63.5114 53.7614 65.7614C55.1023 68.0114 55.7727 70.7727 55.7727 74.0455C55.7727 77.8182 54.7841 81.2273 52.8068 84.2727C50.8523 87.3182 47.9886 89.7386 44.2159 91.5341C40.4659 93.3295 35.9091 94.2273 30.5455 94.2273C25.5455 94.2273 21.2159 93.4205 17.5568 91.8068C13.9205 90.1932 11.0568 87.9432 8.96591 85.0568C6.89773 82.1705 5.72727 78.8182 5.45455 75H14.1818C14.4091 77.6364 15.2955 79.8182 16.8409 81.5455C18.4091 83.25 20.3864 84.5227 22.7727 85.3636C25.1818 86.1818 27.7727 86.5909 30.5455 86.5909C33.7727 86.5909 36.6705 86.0682 39.2386 85.0227C41.8068 83.9545 43.8409 82.4773 45.3409 80.5909C46.8409 78.6818 47.5909 76.4545 47.5909 73.9091C47.5909 71.5909 46.9432 69.7045 45.6477 68.25C44.3523 66.7955 42.6477 65.6136 40.5341 64.7045C38.4205 63.7955 36.1364 63 33.6818 62.3182L25.0909 59.8636C19.6364 58.2955 15.3182 56.0568 12.1364 53.1477C8.95455 50.2386 7.36364 46.4318 7.36364 41.7273C7.36364 37.8182 8.42045 34.4091 10.5341 31.5C12.6705 28.5682 15.5341 26.2955 19.125 24.6818C22.7386 23.0455 26.7727 22.2273 31.2273 22.2273C35.7273 22.2273 39.7273 23.0341 43.2273 24.6477C46.7273 26.2386 49.5 28.4205 51.5455 31.1932C53.6136 33.9659 54.7045 37.1136 54.8182 40.6364H46.6364ZM68.5824 93V40.6364H76.6278V93H68.5824ZM72.6733 31.9091C71.1051 31.9091 69.7528 31.375 68.6165 30.3068C67.5028 29.2386 66.946 27.9545 66.946 26.4545C66.946 24.9545 67.5028 23.6705 68.6165 22.6023C69.7528 21.5341 71.1051 21 72.6733 21C74.2415 21 75.5824 21.5341 76.696 22.6023C77.8324 23.6705 78.4006 24.9545 78.4006 26.4545C78.4006 27.9545 77.8324 29.2386 76.696 30.3068C75.5824 31.375 74.2415 31.9091 72.6733 31.9091ZM99.4091 61.5V93H91.3636V40.6364H99.1364V48.8182H99.8182C101.045 46.1591 102.909 44.0227 105.409 42.4091C107.909 40.7727 111.136 39.9545 115.091 39.9545C118.636 39.9545 121.739 40.6818 124.398 42.1364C127.057 43.5682 129.125 45.75 130.602 48.6818C132.08 51.5909 132.818 55.2727 132.818 59.7273V93H124.773V60.2727C124.773 56.1591 123.705 52.9545 121.568 50.6591C119.432 48.3409 116.5 47.1818 112.773 47.1818C110.205 47.1818 107.909 47.7386 105.886 48.8523C103.886 49.9659 102.307 51.5909 101.148 53.7273C99.9886 55.8636 99.4091 58.4545 99.4091 61.5ZM168.656 113.727C164.77 113.727 161.429 113.227 158.634 112.227C155.838 111.25 153.509 109.955 151.645 108.341C149.804 106.75 148.338 105.045 147.247 103.227L153.656 98.7273C154.384 99.6818 155.304 100.773 156.418 102C157.531 103.25 159.054 104.33 160.986 105.239C162.94 106.17 165.497 106.636 168.656 106.636C172.884 106.636 176.372 105.614 179.122 103.568C181.872 101.523 183.247 98.3182 183.247 93.9545V83.3182H182.565C181.974 84.2727 181.134 85.4545 180.043 86.8636C178.974 88.25 177.429 89.4886 175.406 90.5795C173.406 91.6477 170.702 92.1818 167.293 92.1818C163.065 92.1818 159.27 91.1818 155.906 89.1818C152.565 87.1818 149.918 84.2727 147.963 80.4545C146.031 76.6364 145.065 72 145.065 66.5455C145.065 61.1818 146.009 56.5114 147.895 52.5341C149.781 48.5341 152.406 45.4432 155.77 43.2614C159.134 41.0568 163.02 39.9545 167.429 39.9545C170.838 39.9545 173.543 40.5227 175.543 41.6591C177.565 42.7727 179.111 44.0455 180.179 45.4773C181.27 46.8864 182.111 48.0455 182.702 48.9545H183.52V40.6364H191.293V94.5C191.293 99 190.27 102.659 188.224 105.477C186.202 108.318 183.474 110.398 180.043 111.716C176.634 113.057 172.838 113.727 168.656 113.727ZM168.384 84.9545C171.611 84.9545 174.338 84.2159 176.565 82.7386C178.793 81.2614 180.486 79.1364 181.645 76.3636C182.804 73.5909 183.384 70.2727 183.384 66.4091C183.384 62.6364 182.815 59.3068 181.679 56.4205C180.543 53.5341 178.861 51.2727 176.634 49.6364C174.406 48 171.656 47.1818 168.384 47.1818C164.974 47.1818 162.134 48.0455 159.861 49.7727C157.611 51.5 155.918 53.8182 154.781 56.7273C153.668 59.6364 153.111 62.8636 153.111 66.4091C153.111 70.0455 153.679 73.2614 154.815 76.0568C155.974 78.8295 157.679 81.0114 159.929 82.6023C162.202 84.1705 165.02 84.9545 168.384 84.9545ZM214.065 23.1818V93H206.02V23.1818H214.065ZM250.756 94.0909C245.71 94.0909 241.358 92.9773 237.699 90.75C234.062 88.5 231.256 85.3636 229.278 81.3409C227.324 77.2955 226.347 72.5909 226.347 67.2273C226.347 61.8636 227.324 57.1364 229.278 53.0455C231.256 48.9318 234.006 45.7273 237.528 43.4318C241.074 41.1136 245.21 39.9545 249.938 39.9545C252.665 39.9545 255.358 40.4091 258.017 41.3182C260.676 42.2273 263.097 43.7045 265.278 45.75C267.46 47.7727 269.199 50.4545 270.494 53.7955C271.79 57.1364 272.438 61.25 272.438 66.1364V69.5455H232.074V62.5909H264.256C264.256 59.6364 263.665 57 262.483 54.6818C261.324 52.3636 259.665 50.5341 257.506 49.1932C255.369 47.8523 252.847 47.1818 249.938 47.1818C246.733 47.1818 243.96 47.9773 241.619 49.5682C239.301 51.1364 237.517 53.1818 236.267 55.7045C235.017 58.2273 234.392 60.9318 234.392 63.8182V68.4545C234.392 72.4091 235.074 75.7614 236.438 78.5114C237.824 81.2386 239.744 83.3182 242.199 84.75C244.653 86.1591 247.506 86.8636 250.756 86.8636C252.869 86.8636 254.778 86.5682 256.483 85.9773C258.21 85.3636 259.699 84.4545 260.949 83.25C262.199 82.0227 263.165 80.5 263.847 78.6818L271.619 80.8636C270.801 83.5 269.426 85.8182 267.494 87.8182C265.563 89.7955 263.176 91.3409 260.335 92.4545C257.494 93.5455 254.301 94.0909 250.756 94.0909Z" fill="#1E1E1E"/>
</svg>
